<?xml version="1.0" encoding="utf-8"?>
<!-- Generator: Adobe Illustrator 24.0.3, SVG Export Plug-In . SVG Version: 6.00 Build 0)  -->
<svg version="1.1" id="Layer_1" xmlns="http://www.w3.org/2000/svg" xmlns:xlink="http://www.w3.org/1999/xlink" x="0px" y="0px"
	 viewBox="0 0 150 150" style="enable-background:new 0 0 150 150;" xml:space="preserve">
<style type="text/css">
	.st0{fill:#89D329;}
	.st1{fill:#00BCFF;}
	.st2{fill:#10384F;}
</style>
<g id="g43">
	<g id="g975">
		<path id="path6" class="st0" d="M149.8,70.3C147.4,31.2,114.9,0,75,0S2.6,31.2,0.2,70.3c0,1.6,0.2,3.2,0.4,4.7
			c1.6,13,6.5,25.1,14,35.1c13.6,18.6,35.5,30.6,60.4,30.6c-34.7,0-63.2-27-65.5-61c-0.2-1.6-0.2-3.2-0.2-4.7s0-3.2,0.2-4.7
			c2.4-33.9,30.8-61,65.5-61c24.9,0,46.8,12,60.4,30.6c7.5,10.1,12.4,22.1,14,35.1c0.2,1.6,0.4,3.2,0.4,4.5c0-1.6,0.2-3.2,0.2-4.7
			C150,73.4,150,71.8,149.8,70.3"/>
		<path id="path8" class="st1" d="M0.2,79.7C2.6,118.8,35.1,150,75,150s72.4-31.2,74.8-70.3c0-1.6-0.2-3.2-0.4-4.7
			c-1.6-13-6.5-25.1-14-35.1C121.8,21.3,99.9,9.3,75,9.3c34.7,0,63.2,27,65.5,61c0.2,1.6,0.2,3.2,0.2,4.7s0,3.2-0.2,4.7
			c-2.4,34.1-30.8,61-65.5,61c-24.9,0-46.8-12-60.4-30.6C7.1,100.1,2.2,88,0.6,75c-0.2-1.6-0.4-3.2-0.4-4.5C0.2,72,0,73.6,0,75.2
			C0,76.6,0,78.2,0.2,79.7"/>
	</g>
	<g id="g28">
		<path id="path858" class="st2" d="M65.7,14.4v20.7h14.4c3.6,0,6.3-2.8,6.3-6.3c0-1.8-0.8-3.4-2-4.5c0.8-1,1.4-2.4,1.6-3.8
			c0-3.4-2.8-6.1-6.1-6.1H65.7z M70.5,18.8h8.7c1,0,1.8,0.8,1.8,1.8c0,1-0.8,1.8-1.8,1.8h-8.7V18.8z M70.5,26.6h8.9c1.2,0,2,0.8,2,2
			c0,1.2-0.8,2-2,2h-8.9V26.6z"/>
		<path id="path852" class="st2" d="M72.6,39.1L62.4,59.8h5.3l1.6-3.6h11.6l1.6,3.6h5.3L77.4,39.1H72.6z M75,44.4l3.6,7.5h-7.1
			L75,44.4z"/>
		<path id="path848" class="st2" d="M82.1,64.3H88L77.6,77.8v7.3h-4.9v-7.3L62.2,64.3h5.9l7.1,9.5L82.1,64.3z"/>
		<path id="path844" class="st2" d="M116.1,64.3v20.7h4.9v-7.9h3.8l5.9,7.9h5.9l-6.1-8.1c2.6-0.8,4.5-3.2,4.5-6.1
			c0-3.6-2.8-6.5-6.3-6.5H116.1z M121.2,68.7h7.1c1,0,2,1,2,2s-0.8,2-2,2h-7.1V68.7z"/>
		<path id="path858-0" class="st2" d="M15.2,64.3v20.7h14.4c3.6,0,6.3-2.8,6.3-6.3c0-1.8-0.8-3.4-2-4.5c0.8-1,1.4-2.4,1.6-3.8
			c0-3.4-2.8-6.1-6.1-6.1H15.2z M19.9,68.7h8.7c1,0,1.8,0.8,1.8,1.8c0,1-0.8,1.8-1.8,1.8h-8.7V68.7z M19.9,76.6h8.9c1.2,0,2,0.8,2,2
			c0,1.2-0.8,2-2,2h-8.9V76.6z"/>
		<path id="path852-8" class="st2" d="M49.1,64.3L38.9,85.1h5.3l1.6-3.6h11.6l1.6,3.6h5.3L53.9,64.3H49.1z M51.5,69.7l3.6,7.5H48
			L51.5,69.7z"/>
		<path id="path830-7" class="st2" d="M109.5,64.3v4.5H95.7v3.5h13.4v4.5H95.7v3.9h13.8v4.5H90.8V64.3L109.5,64.3z"/>
		<path id="path844-7" class="st2" d="M65.5,115.3V136h4.9v-7.9h3.8l5.9,7.9h5.9l-6.1-8.1c2.6-0.8,4.5-3.2,4.5-6.1
			c0-3.6-2.8-6.5-6.3-6.5L65.5,115.3z M70.7,119.6h7.1c1,0,2,1,2,2s-0.8,2-2,2h-7.1V119.6z"/>
		<path id="path830-7-6" class="st2" d="M84.5,89.6V94H70.7v3.5h13.4v4.5H70.7v3.9h13.8v4.5H65.7V89.6H84.5z"/>
	</g>
</g>
</svg>
