<?xml version="1.0" encoding="utf-8"?>
<!-- Generator: Adobe Illustrator 24.0.3, SVG Export Plug-In . SVG Version: 6.00 Build 0)  -->
<svg version="1.1" id="Layer_1" xmlns="http://www.w3.org/2000/svg" xmlns:xlink="http://www.w3.org/1999/xlink" x="0px" y="0px"
	 viewBox="0 0 32 32" style="enable-background:new 0 0 32 32;" xml:space="preserve">
<style type="text/css">
	.st0{fill:#89D329;}
	.st1{fill:#00BCFF;}
	.st2{fill:#10384F;}
</style>
<g id="g43">
	<g id="g975">
		<path id="path6" class="st0" d="M32,15C31.5,6.7,24.5,0,16,0S0.5,6.7,0,15c0,0.3,0,0.7,0.1,1c0.3,2.8,1.4,5.3,3,7.5
			C6,27.5,10.7,30,16,30C8.6,30,2.5,24.3,2,17c0-0.3,0-0.7,0-1s0-0.7,0-1C2.5,7.7,8.6,2,16,2c5.3,0,10,2.6,12.9,6.5
			c1.6,2.1,2.7,4.7,3,7.5c0,0.3,0.1,0.7,0.1,1c0-0.3,0-0.7,0-1C32,15.7,32,15.3,32,15"/>
		<path id="path8" class="st1" d="M0,17c0.5,8.3,7.5,15,16,15s15.5-6.7,16-15c0-0.3,0-0.7-0.1-1c-0.3-2.8-1.4-5.3-3-7.5
			C26,4.5,21.3,2,16,2c7.4,0,13.5,5.8,14,13c0,0.3,0,0.7,0,1s0,0.7,0,1c-0.5,7.3-6.6,13-14,13c-5.3,0-10-2.6-12.9-6.5
			c-1.6-2.1-2.7-4.7-3-7.5c0-0.3-0.1-0.7-0.1-1c0,0.3,0,0.7,0,1C0,16.3,0,16.7,0,17"/>
	</g>
	<g id="g28">
		<path id="path858" class="st2" d="M14,3.1v4.4h3.1c0.8,0,1.3-0.6,1.3-1.3c0-0.4-0.2-0.7-0.4-1c0.2-0.2,0.3-0.5,0.3-0.8
			c0-0.7-0.6-1.3-1.3-1.3H14z M15,4h1.9c0.2,0,0.4,0.2,0.4,0.4c0,0.2-0.2,0.4-0.4,0.4H15V4z M15,5.7h1.9c0.3,0,0.4,0.2,0.4,0.4
			c0,0.3-0.2,0.4-0.4,0.4H15V5.7z"/>
		<path id="path852" class="st2" d="M15.5,8.3l-2.2,4.4h1.1l0.3-0.8h2.5l0.3,0.8h1.1l-2.2-4.4H15.5z M16,9.5l0.8,1.6h-1.5L16,9.5z"
			/>
		<path id="path848" class="st2" d="M17.5,13.7h1.3l-2.2,2.9v1.6h-1.1v-1.6l-2.2-2.9h1.3l1.5,2L17.5,13.7z"/>
		<path id="path844" class="st2" d="M24.8,13.7v4.4h1.1v-1.7h0.8l1.3,1.7h1.3l-1.3-1.7c0.5-0.2,1-0.7,1-1.3c0-0.8-0.6-1.4-1.3-1.4
			H24.8z M25.9,14.7h1.5c0.2,0,0.4,0.2,0.4,0.4c0,0.2-0.2,0.4-0.4,0.4h-1.5V14.7z"/>
		<path id="path858-0" class="st2" d="M3.2,13.7v4.4h3.1c0.8,0,1.3-0.6,1.3-1.3c0-0.4-0.2-0.7-0.4-1c0.2-0.2,0.3-0.5,0.3-0.8
			c0-0.7-0.6-1.3-1.3-1.3H3.2z M4.3,14.7h1.9c0.2,0,0.4,0.2,0.4,0.4c0,0.2-0.2,0.4-0.4,0.4H4.3V14.7z M4.3,16.3h1.9
			c0.3,0,0.4,0.2,0.4,0.4c0,0.3-0.2,0.4-0.4,0.4H4.3V16.3z"/>
		<path id="path852-8" class="st2" d="M10.5,13.7l-2.2,4.4h1.1l0.3-0.8h2.5l0.3,0.8h1.1l-2.2-4.4H10.5z M11,14.9l0.8,1.6h-1.5
			L11,14.9z"/>
		<path id="path830-7" class="st2" d="M23.4,13.7v1h-2.9v0.7h2.9v1h-2.9v0.8h2.9v1h-4v-4.4L23.4,13.7z"/>
		<path id="path844-7" class="st2" d="M14,24.6V29H15v-1.7h0.8l1.3,1.7h1.3l-1.3-1.7c0.5-0.2,1-0.7,1-1.3c0-0.8-0.6-1.4-1.3-1.4
			L14,24.6z M15.1,25.5h1.5c0.2,0,0.4,0.2,0.4,0.4s-0.2,0.4-0.4,0.4h-1.5V25.5z"/>
		<path id="path830-7-6" class="st2" d="M18,19.1v1h-2.9v0.7h2.9v1h-2.9v0.8H18v1h-4v-4.4H18z"/>
	</g>
</g>
</svg>
