<?xml version="1.0" encoding="utf-8"?>
<!-- Generator: Adobe Illustrator 24.0.3, SVG Export Plug-In . SVG Version: 6.00 Build 0)  -->
<svg version="1.1" id="Layer_1" xmlns="http://www.w3.org/2000/svg" xmlns:xlink="http://www.w3.org/1999/xlink" x="0px" y="0px"
	 viewBox="0 0 16 16" style="enable-background:new 0 0 16 16;" xml:space="preserve">
<style type="text/css">
	.st0{fill:#89D329;}
	.st1{fill:#00BCFF;}
	.st2{fill:#10384F;}
</style>
<sodipodi:namedview  bordercolor="#666666" borderopacity="1" gridtolerance="10" guidetolerance="10" id="namedview13" objecttolerance="10" pagecolor="#ffffff" showgrid="false">
	</sodipodi:namedview>
<g id="g43">
	<g id="g975">
		<path id="path6" class="st0" d="M16,7.5C15.7,3.3,12.3,0,8,0S0.3,3.3,0,7.5c0,0.2,0,0.3,0,0.5c0.2,1.4,0.7,2.7,1.5,3.7
			C3,13.7,5.3,15,8,15c-3.7,0-6.7-2.9-7-6.5C1,8.3,1,8.2,1,8s0-0.3,0-0.5C1.3,3.9,4.3,1,8,1c2.7,0,5,1.3,6.4,3.3
			c0.8,1.1,1.3,2.4,1.5,3.7c0,0.2,0,0.3,0,0.5c0-0.2,0-0.3,0-0.5C16,7.8,16,7.7,16,7.5"/>
		<path id="path8" class="st1" d="M0,8.5C0.3,12.7,3.7,16,8,16s7.7-3.3,8-7.5c0-0.2,0-0.3,0-0.5c-0.2-1.4-0.7-2.7-1.5-3.7
			C13,2.3,10.7,1,8,1c3.7,0,6.7,2.9,7,6.5c0,0.2,0,0.3,0,0.5s0,0.3,0,0.5c-0.3,3.6-3.3,6.5-7,6.5c-2.7,0-5-1.3-6.4-3.3
			C0.8,10.7,0.2,9.4,0.1,8c0-0.2,0-0.3,0-0.5C0,7.7,0,7.9,0,8C0,8.2,0,8.3,0,8.5"/>
	</g>
	<g id="g28">
		<path id="path858" class="st2" d="M7,1.5v2.2h1.5c0.4,0,0.7-0.3,0.7-0.7c0-0.2-0.1-0.4-0.2-0.5c0.1-0.1,0.1-0.3,0.2-0.4
			c0-0.4-0.3-0.7-0.7-0.7H7z M7.5,2h0.9c0.1,0,0.2,0.1,0.2,0.2c0,0.1-0.1,0.2-0.2,0.2H7.5V2z M7.5,2.8h0.9c0.1,0,0.2,0.1,0.2,0.2
			c0,0.1-0.1,0.2-0.2,0.2H7.5V2.8z"/>
		<path id="path852" class="st2" d="M7.7,4.2L6.7,6.4h0.6L7.4,6h1.2l0.2,0.4h0.6L8.3,4.2H7.7z M8,4.7l0.4,0.8H7.6L8,4.7z"/>
		<path id="path848" class="st2" d="M8.8,6.9h0.6L8.3,8.3v0.8H7.7V8.3L6.6,6.9h0.6l0.8,1L8.8,6.9z"/>
		<path id="path844" class="st2" d="M12.4,6.9v2.2h0.5V8.2h0.4l0.6,0.8h0.6l-0.7-0.9c0.3-0.1,0.5-0.3,0.5-0.7c0-0.4-0.3-0.7-0.7-0.7
			H12.4z M12.9,7.3h0.8c0.1,0,0.2,0.1,0.2,0.2c0,0.1-0.1,0.2-0.2,0.2h-0.8V7.3z"/>
		<path id="path858-0" class="st2" d="M1.6,6.9v2.2h1.5c0.4,0,0.7-0.3,0.7-0.7c0-0.2-0.1-0.4-0.2-0.5c0.1-0.1,0.1-0.3,0.2-0.4
			c0-0.4-0.3-0.7-0.7-0.7H1.6z M2.1,7.3h0.9c0.1,0,0.2,0.1,0.2,0.2c0,0.1-0.1,0.2-0.2,0.2H2.1V7.3z M2.1,8.2h0.9
			c0.1,0,0.2,0.1,0.2,0.2c0,0.1-0.1,0.2-0.2,0.2H2.1V8.2z"/>
		<path id="path852-8" class="st2" d="M5.2,6.9L4.1,9.1h0.6l0.2-0.4h1.2l0.2,0.4h0.6L5.7,6.9H5.2z M5.5,7.4l0.4,0.8H5.1L5.5,7.4z"/>
		<path id="path830-7" class="st2" d="M11.7,6.9v0.5h-1.5v0.4h1.4v0.5h-1.4v0.4h1.5v0.5h-2V6.9L11.7,6.9z"/>
		<path id="path844-7" class="st2" d="M7,12.3v2.2h0.5v-0.8h0.4l0.6,0.8h0.6l-0.7-0.9C8.8,13.6,9,13.3,9,13c0-0.4-0.3-0.7-0.7-0.7
			L7,12.3z M7.5,12.8h0.8c0.1,0,0.2,0.1,0.2,0.2s-0.1,0.2-0.2,0.2H7.5V12.8z"/>
		<path id="path830-7-6" class="st2" d="M9,9.6V10H7.5v0.4H9v0.5H7.5v0.4H9v0.5H7V9.6H9z"/>
	</g>
</g>
</svg>
