<svg xmlns="http://www.w3.org/2000/svg" xmlns:xlink="http://www.w3.org/1999/xlink" width="202" height="30" version="1.1" viewBox="0 0 202 30"><title>65A2215A-4D03-42ED-8FB3-C4902ADDC4B6</title><g id="Page-1" fill="none" fill-rule="evenodd" stroke="none" stroke-width="1"><g id="Smart-Bayer-2-Tela-1---Introducao" fill-rule="nonzero" transform="translate(-98.000000, -40.000000)"><g id="logo-impulso-bayer" transform="translate(98.000000, 40.000000)"><rect id="Rectangle" width="3" height="12" x="1" y="1" fill="#0F384F"/><path id="Path" fill="#0F384F" d="M71.0417957,5.5623987 C71.0417957,6.72123177 70.9210526,7.62722853 70.6594427,8.30145867 C70.3978328,8.97568882 70.0154799,9.43922204 69.4922601,9.71312804 C69.2306502,9.86061588 68.9489164,9.96596434 68.626935,10.0291734 C68.3049536,10.0923825 67.9427245,10.1345219 67.5603715,10.1345219 C66.7755418,10.1345219 66.1315789,9.98703404 65.5882353,9.69205835 C65.0650155,9.39708266 64.6625387,8.93354943 64.380805,8.25931929 C64.2399381,7.92220421 64.1393189,7.54294976 64.0789474,7.07941653 C64.0185759,6.61588331 63.9783282,6.1102107 63.9783282,5.54132901 L63.9783282,0 L61,0 L61,5.64667747 C61,7.4165316 61.2414861,8.84927066 61.744582,9.92382496 C62.247678,10.9983793 62.9721362,11.7779579 63.9380805,12.2625608 C64.4210526,12.4943274 64.9643963,12.6839546 65.5479876,12.8103728 C66.1315789,12.9367909 66.7956656,13 67.5,13 C68.8482972,13 70.0154799,12.7682334 70.9814241,12.2836305 C71.9473684,11.7990276 72.6919505,11.0194489 73.2151703,9.94489465 C73.4767802,9.39708266 73.6780186,8.78606159 73.7987616,8.06969206 C73.9195046,7.35332253 74,6.57374392 74,5.68881686 L74,0 L71.0216718,0 L71.0216718,5.5623987 L71.0417957,5.5623987 Z"/><path id="Shape" fill="#0F384F" d="M137.962291,6.62380952 C137.962291,7.55238095 137.773743,8.2952381 137.417598,8.85238095 C137.061453,9.40952381 136.537709,9.8015873 135.867318,10.0285714 C135.532123,10.152381 135.175978,10.2555556 134.777933,10.2968254 C134.379888,10.3587302 133.939944,10.3793651 133.47905,10.3793651 C132.096369,10.3793651 131.006983,10.0698413 130.231844,9.45079365 C129.435754,8.83174603 129.058659,7.88253968 129.058659,6.58253968 L129.058659,6.56190476 C129.058659,5.15873016 129.456704,4.12698413 130.231844,3.50793651 C131.027933,2.88888889 132.117318,2.57936508 133.5,2.57936508 C134.421788,2.57936508 135.217877,2.7031746 135.888268,2.97142857 C136.558659,3.23968254 137.061453,3.65238095 137.438547,4.23015873 C137.627095,4.53968254 137.773743,4.86984127 137.857542,5.26190476 C137.920391,5.67460317 137.962291,6.12857143 137.962291,6.62380952 L137.962291,6.62380952 Z M140.036313,2.97142857 C139.386872,2.0015873 138.486034,1.25873016 137.354749,0.763492063 C136.789106,0.515873016 136.181564,0.30952381 135.532123,0.185714286 C134.882682,0.0619047619 134.212291,0 133.47905,0 C132.03352,0 130.755587,0.247619048 129.624302,0.763492063 C128.493017,1.27936508 127.613128,2.02222222 126.963687,2.99206349 C126.649441,3.48730159 126.398045,4.02380952 126.251397,4.6015873 C126.083799,5.2 126,5.83968254 126,6.52063492 L126,6.6031746 C126,8.08888889 126.314246,9.28571429 126.942737,10.2349206 C127.571229,11.184127 128.430168,11.8650794 129.561453,12.3190476 C130.127095,12.5460317 130.734637,12.7111111 131.384078,12.8349206 C132.03352,12.9380952 132.74581,13 133.5,13 C134.96648,13 136.265363,12.7730159 137.396648,12.2984127 C138.527933,11.8238095 139.407821,11.1222222 140.036313,10.1936508 C140.371508,9.71904762 140.601955,9.18253968 140.769553,8.58412698 C140.937151,7.98571429 141,7.32539683 141,6.62380952 L141,6.5 C141,5.11746032 140.685754,3.94126984 140.036313,2.97142857"/><path id="Path" fill="#0F384F" d="M21.5103164,3.49833887 C18.4979367,3.49833887 16.7028886,0 16.7028886,0 L14,0 L14,12.9784053 L16.7441541,12.9352159 L16.7441541,4.36212625 C16.7441541,4.36212625 18.2709766,6.54318937 21.4484182,6.54318937 C24.7290234,6.54318937 26.2558459,4.25415282 26.2558459,4.25415282 L26.2558459,13 L29,13 L29,0 L26.5034388,0 C26.5034388,0 24.5020633,3.49833887 21.5103164,3.49833887"/><path id="Shape" fill="#0F384F" d="M46.3596774,6.88981636 L41.9983871,6.88981636 L41.9983871,3.38397329 L46.4645161,3.38397329 C47.6806452,3.38397329 49.0016129,3.68447412 49.0016129,5.22704508 C49.0016129,6.58931553 47.6806452,6.88981636 46.3596774,6.88981636 M46.8209677,1 L39,1 L39,13 L41.9983871,13 C41.9983871,9.41402337 43.5290323,9.31385643 46.3596774,9.31385643 C49.0016129,9.31385643 52,8.35225376 52,5.1869783 C52,1.92153589 49.0016129,1 46.8209677,1"/><path id="Path" fill="#0F384F" d="M86.9779006,7.0066335 L86.9779006,0 L84,0.0431177446 L84,13 L95,13 L95,10.13267 L90.7255985,10.13267 C88.1123389,10.13267 86.9779006,9.76616915 86.9779006,7.0066335"/><path id="Path" fill="#0F384F" d="M111.484099,4.92358804 L109.257951,4.92358804 C108.303887,4.92358804 107.243816,4.88039867 107.243816,3.82225914 C107.243816,2.78571429 108.070671,2.56976744 109.40636,2.56976744 L114.961131,2.56976744 L114.961131,0 L108.791519,0 C105.886926,0 104,0.842192691 104,3.67109635 C104,7.34219269 106.39576,7.45016611 107.90106,7.45016611 L110.254417,7.45016611 C111.971731,7.45016611 112.713781,7.70930233 112.713781,8.76744186 C112.713781,9.80398671 111.717314,10.127907 110.424028,10.127907 L104.021201,10.127907 L104.021201,13 L111.314488,13 C113.710247,13 116,12.0066445 116,9.02657807 C116,5.91694352 114.261484,4.92358804 111.484099,4.92358804"/><polygon id="Path" fill="#8AD429" points="0 30 0 26 140 26"/><polygon id="Path" fill="#00BDFF" points="140 26 140 30 0 30"/><path id="Shape" fill="#0F384F" d="M159.908142,11.5650741 C160.659708,11.5650741 161.244259,11.3509061 161.661795,10.9439868 C162.079332,10.5370675 162.2881,9.95881384 162.2881,9.2306425 C162.2881,8.80230643 162.204593,8.45963756 162.058455,8.18121911 C161.912317,7.90280066 161.703549,7.68863262 161.453027,7.51729819 C161.202505,7.34596376 160.91023,7.23887974 160.5762,7.17462932 C160.242171,7.11037891 159.908142,7.0675453 159.553236,7.0675453 L155.691023,7.0675453 L155.691023,11.5650741 L159.908142,11.5650741 Z M159.052192,5.58978583 C160.012526,5.58978583 160.701461,5.4184514 161.118998,5.07578254 C161.536534,4.73311367 161.745303,4.21911038 161.745303,3.51235585 C161.745303,3.04118616 161.682672,2.67710049 161.536534,2.42009885 C161.390397,2.1630972 161.202505,1.94892916 160.951983,1.79901153 C160.701461,1.6490939 160.409186,1.56342669 160.096033,1.52059308 C159.762004,1.47775947 159.427975,1.45634267 159.052192,1.45634267 L155.670146,1.45634267 L155.670146,5.58978583 L159.052192,5.58978583 Z M158.592902,0 C158.864301,0 159.156576,0 159.469729,0 C159.782881,0 160.096033,0.021416804 160.409186,0.0642504119 C160.722338,0.0856672158 161.014614,0.149917628 161.265136,0.192751236 C161.536534,0.257001647 161.76618,0.342668863 161.954071,0.471169687 C162.371608,0.728171334 162.726514,1.0708402 163.018789,1.52059308 C163.311065,1.97034596 163.457203,2.52718287 163.457203,3.16968699 C163.457203,3.85502471 163.290188,4.45469522 162.977035,4.96869852 C162.643006,5.48270181 162.183716,5.84678748 161.578288,6.08237232 L161.578288,6.12520593 C162.350731,6.29654036 162.956159,6.66062603 163.373695,7.21746293 C163.791232,7.77429984 164,8.45963756 164,9.25205931 C164,9.723229 163.916493,10.1943987 163.749478,10.6441516 C163.582463,11.0939044 163.331942,11.5008237 163.018789,11.8434926 C162.68476,12.1861614 162.2881,12.4645799 161.807933,12.6787479 C161.327766,12.892916 160.764092,13 160.137787,13 L154,13 L154,0 L158.592902,0 Z"/><path id="Shape" fill="#0F384F" d="M172.434783,7.89177489 C172.23913,8.04329004 171.978261,8.15151515 171.652174,8.21645022 C171.326087,8.28138528 171,8.34632035 170.652174,8.38961039 C170.304348,8.43290043 169.956522,8.47619048 169.586957,8.54112554 C169.23913,8.60606061 168.913043,8.69264069 168.630435,8.8008658 C168.347826,8.93073593 168.108696,9.1038961 167.934783,9.32034632 C167.76087,9.53679654 167.673913,9.86147186 167.673913,10.2510823 C167.673913,10.5108225 167.717391,10.7272727 167.826087,10.9004329 C167.934783,11.0735931 168.065217,11.2251082 168.23913,11.3333333 C168.413043,11.4415584 168.608696,11.5281385 168.826087,11.5714286 C169.043478,11.6147186 169.282609,11.6363636 169.521739,11.6363636 C170.043478,11.6363636 170.478261,11.5714286 170.847826,11.4199134 C171.217391,11.2900433 171.521739,11.0952381 171.76087,10.8787879 C172,10.6623377 172.173913,10.4242424 172.282609,10.1861472 C172.391304,9.92640693 172.456522,9.70995671 172.456522,9.47186147 L172.456522,7.89177489 L172.434783,7.89177489 Z M175,12.7619048 C174.717391,12.9134199 174.347826,13 173.869565,13 C173.456522,13 173.130435,12.8917749 172.891304,12.6536797 C172.652174,12.4372294 172.521739,12.047619 172.521739,11.5281385 C172.086957,12.047619 171.586957,12.4155844 171.021739,12.6536797 C170.456522,12.8701299 169.826087,13 169.152174,13 C168.717391,13 168.304348,12.95671 167.913043,12.8484848 C167.521739,12.7402597 167.195652,12.5887446 166.913043,12.3939394 C166.630435,12.1774892 166.413043,11.9177489 166.23913,11.5714286 C166.065217,11.2251082 166,10.8354978 166,10.3376623 C166,9.7965368 166.086957,9.36363636 166.282609,9.01731602 C166.478261,8.67099567 166.717391,8.38961039 167.021739,8.17316017 C167.326087,7.95670996 167.673913,7.80519481 168.065217,7.67532468 C168.456522,7.56709957 168.847826,7.48051948 169.26087,7.39393939 C169.695652,7.30735931 170.108696,7.24242424 170.5,7.1991342 C170.891304,7.15584416 171.23913,7.09090909 171.521739,7.004329 C171.826087,6.91774892 172.043478,6.80952381 172.217391,6.65800866 C172.391304,6.50649351 172.478261,6.29004329 172.478261,5.98701299 C172.478261,5.64069264 172.413043,5.35930736 172.282609,5.16450216 C172.152174,4.94805195 171.978261,4.7965368 171.782609,4.68831169 C171.586957,4.58008658 171.347826,4.49350649 171.086957,4.47186147 C170.826087,4.42857143 170.586957,4.40692641 170.347826,4.40692641 C169.673913,4.40692641 169.130435,4.53679654 168.673913,4.77489177 C168.23913,5.03463203 168,5.51082251 167.956522,6.2034632 L166.391304,6.2034632 C166.413043,5.61904762 166.543478,5.12121212 166.76087,4.70995671 C166.978261,4.2987013 167.282609,3.97402597 167.652174,3.71428571 C168.021739,3.45454545 168.434783,3.28138528 168.913043,3.17316017 C169.391304,3.06493506 169.891304,3 170.434783,3 C170.869565,3 171.304348,3.02164502 171.717391,3.08658009 C172.152174,3.15151515 172.521739,3.28138528 172.869565,3.45454545 C173.217391,3.64935065 173.5,3.90909091 173.695652,4.25541126 C173.913043,4.6017316 174,5.05627706 174,5.5974026 L174,10.4891775 C174,10.8571429 174.021739,11.1168831 174.065217,11.2900433 C174.108696,11.4632035 174.26087,11.5497835 174.5,11.5497835 C174.630435,11.5497835 174.804348,11.5281385 174.978261,11.4848485 L174.978261,12.7619048 L175,12.7619048 Z"/><path id="Path" fill="#0F384F" d="M180.794189,14.534846 C180.598063,14.9983793 180.423729,15.3776337 180.249395,15.6936791 C180.075061,16.0097245 179.878935,16.2625608 179.661017,16.452188 C179.443099,16.6418152 179.20339,16.7893031 178.941889,16.8735818 C178.680387,16.9578606 178.375303,17 178.026634,17 C177.830508,17 177.656174,16.9789303 177.460048,16.9578606 C177.263923,16.9367909 177.089588,16.8946515 176.915254,16.8314425 L176.915254,15.4408428 C177.046005,15.5040519 177.198547,15.5461912 177.394673,15.5883306 C177.569007,15.63047 177.72155,15.6515397 177.8523,15.6515397 C178.179177,15.6515397 178.440678,15.5672609 178.658596,15.4197731 C178.876513,15.2722853 179.029056,15.0615883 179.159806,14.7876823 L179.813559,13.2285251 L176,4 L177.786925,4 L180.598063,11.5850891 L180.641646,11.5850891 L183.322034,4 L185,4 L180.794189,14.534846 Z"/><path id="Shape" fill="#0F384F" d="M193.262222,6.04347826 C193.124375,5.7173913 192.966835,5.41304348 192.750217,5.17391304 C192.533599,4.93478261 192.277596,4.73913043 191.982208,4.60869565 C191.686821,4.45652174 191.352048,4.39130435 190.997582,4.39130435 C190.623424,4.39130435 190.288651,4.45652174 189.993264,4.60869565 C189.697876,4.76086957 189.441873,4.93478261 189.225255,5.19565217 C189.008637,5.43478261 188.851097,5.73913043 188.71325,6.06521739 C188.595094,6.39130435 188.516324,6.73913043 188.496632,7.10869565 L193.47884,7.10869565 C193.459148,6.73913043 193.40007,6.39130435 193.262222,6.04347826 M193.616688,12.1956522 C192.966835,12.7391304 192.159441,13 191.174815,13 C190.485577,13 189.875108,12.8695652 189.363103,12.6304348 C188.851097,12.3913043 188.417862,12.0434783 188.083089,11.5869565 C187.728623,11.1521739 187.472621,10.6086957 187.295388,10 C187.118155,9.39130435 187.019693,8.7173913 187,7.97826087 C187,7.26086957 187.098463,6.58695652 187.295388,5.97826087 C187.492313,5.36956522 187.787701,4.84782609 188.142166,4.41304348 C188.496632,3.97826087 188.929867,3.63043478 189.441873,3.36956522 C189.934186,3.13043478 190.485577,3 191.076352,3 C191.844361,3 192.494214,3.17391304 193.00622,3.52173913 C193.518225,3.86956522 193.931768,4.32608696 194.227156,4.86956522 C194.542236,5.41304348 194.739162,6 194.857317,6.65217391 C194.975472,7.30434783 195.014857,7.91304348 194.995164,8.47826087 L188.496632,8.47826087 C188.476939,8.89130435 188.536017,9.30434783 188.634479,9.67391304 C188.732942,10.0434783 188.890482,10.3913043 189.126793,10.673913 C189.34341,10.9565217 189.638798,11.1956522 189.973571,11.3695652 C190.328036,11.5434783 190.721887,11.6304348 191.194507,11.6304348 C191.804976,11.6304348 192.297289,11.4782609 192.671447,11.173913 C193.065297,10.8695652 193.301607,10.3913043 193.439455,9.76086957 L194.857317,9.76086957 C194.680084,10.8478261 194.266541,11.6521739 193.616688,12.1956522"/><path id="Path" fill="#0F384F" d="M198.450216,4.20118234 L198.450216,6.05671531 L198.493506,6.05671531 C198.883117,5.33844449 199.337662,4.81969333 199.900433,4.48050988 C200.463203,4.14132644 201.155844,3.9817107 202,4.00166266 L202,5.53796416 C201.372294,5.53796416 200.831169,5.61777203 200.398268,5.77738777 C199.965368,5.93700351 199.597403,6.17642712 199.337662,6.47570663 C199.077922,6.77498614 198.861472,7.15407353 198.753247,7.59301681 C198.623377,8.0319601 198.558442,8.53075928 198.558442,9.08941437 L198.558442,13 L197,13 L197,4.22113431 L198.450216,4.22113431 L198.450216,4.20118234 Z"/></g></g></g></svg>